<svg width="20" height="16" fill="none" xmlns="http://www.w3.org/2000/svg">
    <path d="M18.9 5.695C17.643 3.648 14.788.215 9.776.215S1.91 3.647.655 5.694a3.98 3.98 0 0 0 0 4.183c1.255 2.047 4.11 5.48 9.122 5.48s7.867-3.433 9.122-5.48a3.98 3.98 0 0 0 0-4.183Zm-1.38 3.334C16.44 10.784 14 13.74 9.776 13.74s-6.664-2.955-7.742-4.71a2.366 2.366 0 0 1 0-2.486c1.078-1.755 3.518-4.708 7.742-4.708s6.664 2.95 7.742 4.708a2.366 2.366 0 0 1 0 2.486Z" fill="#757575"/>
    <path d="M9.777 3.735a4.043 4.043 0 0 0-3.739 2.501 4.056 4.056 0 0 0 .877 4.415 4.045 4.045 0 0 0 6.909-2.865 4.059 4.059 0 0 0-1.187-2.863 4.05 4.05 0 0 0-2.86-1.188Zm0 6.482a2.426 2.426 0 0 1-2.243-1.5 2.434 2.434 0 0 1 1.77-3.315 2.425 2.425 0 0 1 2.492 1.034 2.433 2.433 0 0 1-2.02 3.781Z" fill="#757575"/>
</svg>
