<svg width="11" height="11" fill="none" xmlns="http://www.w3.org/2000/svg">
    <path d="m3.626 3.858.307-.043.143-.276 1.285-2.477.002-.003h.001a.06.06 0 0 1 .028-.007c.015 0 .026.004.03.007l.002.001.002.003L6.711 3.54l.142.276.308.043 2.875.398.008.001-2.065 1.914-.241.223.058.324.49 2.707a.058.058 0 0 1-.025.008.049.049 0 0 1-.027-.005L5.662 8.142l-.269-.134-.268.134-2.572 1.286h-.002a.045.045 0 0 1-.025.006.056.056 0 0 1-.025-.008l.49-2.708.058-.324-.24-.223L.742 4.257H.75l2.875-.4ZM8.288 9.44l.59-.106c.089.492-.456.859-.913.63l.323-.524Z" fill="#fff" stroke="#7AC751" stroke-width="1.2"/>
</svg>
