<svg width="18" height="15" fill="none" xmlns="http://www.w3.org/2000/svg">
    <path d="M17.774 2.178a6.964 6.964 0 0 1-2 .538A3.464 3.464 0 0 0 17.3.8a6.857 6.857 0 0 1-2.203.84A3.465 3.465 0 0 0 12.56.541a3.472 3.472 0 0 0-3.473 3.475c0 .269.033.538.086.796a9.87 9.87 0 0 1-7.161-3.635 3.448 3.448 0 0 0-.473 1.754c0 1.205.613 2.268 1.548 2.894a3.503 3.503 0 0 1-1.57-.442v.042A3.474 3.474 0 0 0 4.3 8.836a3.679 3.679 0 0 1-.915.118 4.62 4.62 0 0 1-.655-.053 3.48 3.48 0 0 0 3.246 2.41 6.96 6.96 0 0 1-4.312 1.484c-.29 0-.56-.01-.839-.043a9.834 9.834 0 0 0 5.334 1.559c6.388 0 9.883-5.292 9.883-9.885 0-.15 0-.301-.01-.452a7.48 7.48 0 0 0 1.74-1.796Z" fill="#555"/>
</svg>
