<svg width="32" height="39" fill="none" xmlns="http://www.w3.org/2000/svg"><path d="M5.97 6.946c.645 0 1.171-.526 1.171-1.171S6.615 4.603 5.97 4.603a1.172 1.172 0 1 0 0 2.343ZM9.596 24.783v2.25a10.674 10.674 0 0 1 6.298-2.048c2.292 0 4.473.725 6.297 2.048v-2.25c0-1.889.948-3.558 2.387-4.563a4.498 4.498 0 0 0-4.485-4.265h-8.399A4.498 4.498 0 0 0 7.21 20.22a5.565 5.565 0 0 1 2.386 4.563ZM22.822 12.53H8.915v1.897h13.907V12.53Z" fill="#85B839"/><path d="M22.191 29.026a9.157 9.157 0 0 0-6.297-2.498c-2.361 0-4.582.89-6.298 2.498v2.055h12.595v-2.055ZM25.551 6.946c.645 0 1.172-.526 1.172-1.171s-.527-1.172-1.172-1.172a1.172 1.172 0 0 0 0 2.343ZM15.912 3.778a1.89 1.89 0 0 0 1.889-1.89A1.89 1.89 0 0 0 15.91 0a1.89 1.89 0 0 0-1.888 1.889 1.89 1.89 0 0 0 1.889 1.889Z" fill="#85B839"/><path d="M27.76 20.757a4.03 4.03 0 0 0-4.026 4.026v7.837H8.054v-7.837a4.03 4.03 0 0 0-4.027-4.026A4.03 4.03 0 0 0 0 24.783a4.03 4.03 0 0 0 4.027 4.027h.771v7.069h22.191v-7.07h.772a4.03 4.03 0 0 0 4.026-4.026 4.03 4.03 0 0 0-4.026-4.026ZM4.028 26.034a1.252 1.252 0 1 1 .001-2.5 1.252 1.252 0 0 1-.001 2.5Zm23.734 0a1.25 1.25 0 0 1-1.251-1.25 1.25 1.25 0 1 1 2.502 0 1.25 1.25 0 0 1-1.251 1.25ZM8.698 10.988h14.337a7.29 7.29 0 0 0 1.662-2.928 6.524 6.524 0 0 1-3.032.757 6.523 6.523 0 0 1-5.8-3.547c-1.085 2.102-3.277 3.547-5.8 3.547-1.071 0-2.106-.26-3.028-.742a7.392 7.392 0 0 0 1.661 2.913ZM9.596 37.422H8.053v1.543h1.543v-1.543ZM23.734 37.422h-1.543v1.543h1.543v-1.543Z" fill="#85B839"/></svg>