<svg width="18" height="18" fill="none" xmlns="http://www.w3.org/2000/svg"><path d="M2.865 3.437a7.993 7.993 0 0 1 2.586-1.86C8.58.166 12.39.893 14.758 3.598l1.635-1.401c.091-.078.237-.006.246.116l.407 5.488c.005.091-.08.163-.166.142l-5.35-1.248c-.122-.03-.167-.183-.077-.26l1.633-1.4a5.794 5.794 0 0 0-6.11-1.676 5.72 5.72 0 0 0-2.22 1.31A5.783 5.783 0 0 0 3.07 7.781a1.102 1.102 0 0 1-1.336.87A1.113 1.113 0 0 1 .9 7.348a7.911 7.911 0 0 1 1.964-3.91Zm11.455 7.037a5.713 5.713 0 0 1-1.686 3.11 5.758 5.758 0 0 1-2.22 1.311c-2.127.68-4.548.098-6.11-1.677l1.633-1.398c.09-.078.042-.233-.077-.26L.507 10.307c-.09-.019-.174.053-.165.142l.404 5.485c.011.125.154.194.245.116l1.636-1.401c2.364 2.707 6.176 3.438 9.306 2.022a8.072 8.072 0 0 0 2.587-1.86 7.87 7.87 0 0 0 1.966-3.909 1.113 1.113 0 0 0-.831-1.302 1.105 1.105 0 0 0-1.335.873Z" fill="#757575" stroke="#fff" stroke-width=".3"/></svg>